# xmcd CD database file
#
# Track frame offsets:
#	170
#	12462
#	27667
#	42250
#	57215
#	76477
#	93050
#	109507
#	123707
#	135050
#	150480
#	159420
#	176565
#	188995
#	209822
#	225667
#	244642
#	258182
#
# Disc length: 3564 seconds
#
# Revision: 3
# Processed by: cddbd v1.5.2PL0 Copyright (c) Steve Scherf et al.
# Submitted via: CDex 1.51
#
DISCID=e50dea12
DTITLE=Various Artist - Blues Pajama Party
DYEAR=1992
DGENRE=Blues
TTITLE0=Lynn August-Zydeco Shoes
TTITLE1=Lynn August-Hey Lucille
TTITLE2=Ronnie Earl and The Broadcasters-Bonehead Too
TTITLE3=Snooks Eaglin-That Same Old Train
TTITLE4=Bobby Radcliff-All Your Love
TTITLE5=Robert Ward-Potato Soup
TTITLE6=Robert Ward-I'm Gonna Cry A River
TTITLE7=Rod Piazza and The Mighty Flyers-Deep Fried
TTITLE8=Earl King and Roomfull Of Blues With Curtis Salgado-Please Don't Leave Me Here To Cry
TTITLE9=Carol Fran-All Of My Life
TTITLE10=James Thunderbird Davis-If I Had My Life To Live Over Again
TTITLE11=Sil Austin-Sil's Crescent City Groove
TTITLE12=Hubert Sumlin and Might Sam McClain-Meet Me In The Bottom
TTITLE13=James Harman Band-Got News
TTITLE14=Rod Piazza and The Mighty Flyers-Bad, Bad Boy
TTITLE15=Earl King-Love Is The Way Of Life
TTITLE16=Greg Piccolo-Mushmouth
TTITLE17=Snooks Eaglin-I'll See You In My Dreams/Mr. Sandman
EXTD=YEAR: 1992
EXTT0=Lynn August\n
EXTT1=Lynn August\n
EXTT2=Ronnie Earl and the Broadcasters\n
EXTT3=Snooks Eaglin\n
EXTT4=Bobby Radcliff\n
EXTT5=Robert Ward\n
EXTT6=Robert Ward\n
EXTT7=Rod Piazza and the Mighty Flyers\n
EXTT8=
EXTT9=Carol Fran\n
EXTT10=James Thunderbird Davis\n
EXTT11=Sil Austin\n
EXTT12=Hubert Sumlin and MIghty Sam McClain\n
EXTT13=The James Harman Band\n
EXTT14=Rod Piazza and the Mighty Flyers\n
EXTT15=Earl King\n
EXTT16=Greg Piccolo\n
EXTT17=Snooks Eaglin\n
PLAYORDER=
